<?xml version="1.0" encoding="utf-8"?>
<!-- Generator: Adobe Illustrator 16.0.0, SVG Export Plug-In . SVG Version: 6.00 Build 0)  -->
<!DOCTYPE svg PUBLIC "-//W3C//DTD SVG 1.1//EN" "http://www.w3.org/Graphics/SVG/1.1/DTD/svg11.dtd">
<svg version="1.1" id="Layer_1" xmlns="http://www.w3.org/2000/svg" xmlns:xlink="http://www.w3.org/1999/xlink" x="0px" y="0px"
	 width="612px" height="792px" viewBox="0 0 612 792" enable-background="new 0 0 612 792" xml:space="preserve">
<path fill="#386895" d="M425.472,566H186.528c-4.435,0-8.027-3.594-8.027-8.028V234.028c0-4.435,3.594-8.028,8.027-8.028h238.943
	c4.435,0,8.027,3.593,8.027,8.028v323.944C433.5,562.406,429.906,566,425.472,566z"/>
<path fill="#273B7A" d="M425.472,226H306v340h119.472c4.435,0,8.027-3.594,8.027-8.028V234.028
	C433.5,229.593,429.906,226,425.472,226z"/>
<rect x="191.636" y="238.363" fill="#FFFFFF" width="228.728" height="311.152"/>
<rect x="306" y="238.363" fill="#D0D1D3" width="114.364" height="311.152"/>
<path fill="#B69EEF" d="M327.923,198.697c-2.52-9.771-11.366-17-21.923-17c-10.557,0-19.405,7.228-21.923,17h-22.208
	c-5.787,0-10.476,4.69-10.476,10.475v33.657c0,5.786,4.69,10.476,10.476,10.476h88.262c5.787,0,10.475-4.69,10.475-10.476v-33.657
	c0-5.787-4.69-10.475-10.475-10.475H327.923z M306,211.575c-3.982,0-7.213-3.229-7.213-7.212s3.229-7.212,7.213-7.212
	s7.213,3.229,7.213,7.212S309.982,211.575,306,211.575z"/>
<path fill="#B69EEF" d="M350.13,198.697h-22.208c-2.52-9.771-11.366-17-21.923-17v15.454c3.982,0,7.212,3.229,7.212,7.212
	s-3.229,7.212-7.212,7.212v41.728h44.13c5.786,0,10.475-4.69,10.475-10.475v-33.658C360.606,203.387,355.916,198.697,350.13,198.697
	z"/>
<g>
	<rect x="363.182" y="286.272" fill="#FFFFFF" width="33.999" height="34"/>
	<rect x="363.182" y="471.728" fill="#FFFFFF" width="33.999" height="34"/>
	<rect x="363.182" y="409.908" fill="#FFFFFF" width="33.999" height="34"/>
	<rect x="363.182" y="348.091" fill="#FFFFFF" width="33.999" height="34"/>
</g>
<g>
	<rect x="204" y="297.998" fill="#808183" width="136" height="10.536"/>
	<rect x="204" y="483.452" fill="#808183" width="136" height="10.536"/>
	<rect x="204" y="421.634" fill="#808183" width="136" height="10.535"/>
	<rect x="204" y="359.815" fill="#808183" width="136" height="10.536"/>
</g>
<g>
	<rect x="306" y="297.998" fill="#59595B" width="33.999" height="10.536"/>
	<rect x="306" y="483.452" fill="#59595B" width="33.999" height="10.536"/>
	<rect x="306" y="421.634" fill="#59595B" width="33.999" height="10.535"/>
	<rect x="306" y="359.815" fill="#59595B" width="33.999" height="10.536"/>
</g>
<g>
	<path fill="#7F25E8" d="M374,319.243c-0.095,0-0.189-0.002-0.287-0.009c-1.463-0.08-2.82-0.78-3.735-1.927l-12.362-15.454
		c-1.776-2.221-1.418-5.462,0.806-7.241c2.223-1.78,5.46-1.415,7.241,0.806l8.768,10.958l29.931-29.928
		c2.013-2.013,5.272-2.013,7.284,0c2.012,2.013,2.013,5.272,0,7.284l-34,34C376.675,318.703,375.364,319.243,374,319.243z"/>
	<path fill="#7F25E8" d="M374,380.546c-0.095,0-0.189-0.002-0.287-0.008c-1.463-0.08-2.82-0.781-3.735-1.927l-12.362-15.454
		c-1.776-2.221-1.418-5.462,0.806-7.241c2.223-1.78,5.46-1.417,7.241,0.806l8.768,10.959l29.931-29.929
		c2.013-2.013,5.272-2.013,7.284,0c2.012,2.013,2.013,5.273,0,7.285l-34,34C376.675,380.005,375.364,380.546,374,380.546z"/>
	<path fill="#7F25E8" d="M374,441.849c-0.095,0-0.189-0.002-0.287-0.009c-1.463-0.08-2.82-0.78-3.735-1.927l-12.362-15.454
		c-1.776-2.221-1.418-5.463,0.806-7.241c2.223-1.778,5.46-1.415,7.241,0.806l8.768,10.959l29.931-29.928
		c2.013-2.014,5.272-2.014,7.284,0c2.012,2.012,2.013,5.271,0,7.283l-34,34C376.675,441.309,375.364,441.849,374,441.849z"/>
	<path fill="#7F25E8" d="M374,503.151c-0.095,0-0.189-0.002-0.287-0.008c-1.463-0.08-2.82-0.781-3.735-1.928l-12.362-15.454
		c-1.776-2.221-1.418-5.462,0.806-7.241c2.223-1.779,5.46-1.415,7.241,0.806l8.768,10.959l29.931-29.929
		c2.013-2.013,5.272-2.013,7.284,0c2.012,2.014,2.013,5.273,0,7.284l-34,34C376.675,502.611,375.364,503.151,374,503.151z"/>
</g>
</svg>
