<?xml version="1.0" encoding="utf-8"?>
<!-- Generator: Adobe Illustrator 16.0.0, SVG Export Plug-In . SVG Version: 6.00 Build 0)  -->
<!DOCTYPE svg PUBLIC "-//W3C//DTD SVG 1.1//EN" "http://www.w3.org/Graphics/SVG/1.1/DTD/svg11.dtd">
<svg version="1.1" id="Layer_1" xmlns="http://www.w3.org/2000/svg" xmlns:xlink="http://www.w3.org/1999/xlink" x="0px" y="0px"
	 width="612px" height="792px" viewBox="0 0 612 792" enable-background="new 0 0 612 792" xml:space="preserve">
<path fill="#6E76E5" d="M111.029,543.587V407.83c-37.427,0-67.878,30.451-67.878,67.88
	C43.151,513.138,73.601,543.587,111.029,543.587z"/>
<path fill="#6E76E5" d="M111.029,566.051C49.807,566.051,0,615.858,0,677.08v24.728h222.057V677.08
	C222.057,615.858,172.25,566.051,111.029,566.051z"/>
<path fill="#6E76E5" d="M500.971,543.587V407.83c-37.427,0-67.878,30.451-67.878,67.88
	C433.093,513.138,463.544,543.587,500.971,543.587z"/>
<path fill="#6E76E5" d="M500.971,566.051c-61.222,0-111.029,49.808-111.029,111.029v24.728H612V677.08
	C612,615.858,562.193,566.051,500.971,566.051z"/>
<path fill="#6E76E5" d="M306,225.949V90.193c-37.427,0-67.877,30.45-67.877,67.879C238.123,195.5,268.573,225.949,306,225.949z"/>
<path fill="#515BE0" d="M178.907,475.71c0-37.429-30.45-67.88-67.877-67.88v135.757C148.457,543.587,178.907,513.137,178.907,475.71
	z"/>
<path fill="#515BE0" d="M568.85,475.71c0-37.429-30.45-67.88-67.878-67.88v135.757C538.399,543.587,568.85,513.137,568.85,475.71z"
	/>
<path fill="#515BE0" d="M373.878,158.07c0-37.428-30.451-67.879-67.878-67.879v135.757
	C343.427,225.949,373.878,195.499,373.878,158.07z"/>
<path fill="#6E76E5" d="M417.029,359.442c0-61.222-49.807-111.029-111.029-111.029c-61.222,0-111.029,49.808-111.029,111.029v24.728
	h222.058L417.029,359.442L417.029,359.442z"/>
<polygon fill="#C39DF4" points="330.728,501.773 330.728,421.118 281.273,421.118 281.273,501.773 211.423,542.102 236.15,584.93 
	306,544.603 375.85,584.93 400.577,542.102 "/>
</svg>
